<svg width="522" height="473" viewBox="0 0 522 473" fill="none" xmlns="http://www.w3.org/2000/svg">
<circle cx="514.448" cy="7.33679" r="6.3583" transform="rotate(89.933 514.448 7.33679)" fill="#F4FCFF"/>
<circle cx="489.014" cy="7.36658" r="6.3583" transform="rotate(89.933 489.014 7.36658)" fill="#F4FCFF"/>
<circle cx="463.581" cy="7.39624" r="6.3583" transform="rotate(89.933 463.581 7.39624)" fill="#F4FCFF"/>
<circle cx="438.148" cy="7.42603" r="6.3583" transform="rotate(89.933 438.148 7.42603)" fill="#F4FCFF"/>
<circle cx="412.715" cy="7.45569" r="6.3583" transform="rotate(89.933 412.715 7.45569)" fill="#F4FCFF"/>
<circle cx="387.282" cy="7.48548" r="6.3583" transform="rotate(89.933 387.282 7.48548)" fill="#F4FCFF"/>
<circle cx="361.848" cy="7.51514" r="6.3583" transform="rotate(89.933 361.848 7.51514)" fill="#F4FCFF"/>
<circle cx="336.415" cy="7.54492" r="6.3583" transform="rotate(89.933 336.415 7.54492)" fill="#F4FCFF"/>
<circle cx="310.982" cy="7.57471" r="6.3583" transform="rotate(89.933 310.982 7.57471)" fill="#F4FCFF"/>
<circle cx="285.549" cy="7.60437" r="6.3583" transform="rotate(89.933 285.549 7.60437)" fill="#F4FCFF"/>
<circle cx="260.116" cy="7.63416" r="6.3583" transform="rotate(89.933 260.116 7.63416)" fill="#F4FCFF"/>
<circle cx="234.682" cy="7.66382" r="6.3583" transform="rotate(89.933 234.682 7.66382)" fill="#F4FCFF"/>
<circle cx="209.25" cy="7.69361" r="6.3583" transform="rotate(89.933 209.25 7.69361)" fill="#F4FCFF"/>
<circle cx="183.816" cy="7.72327" r="6.3583" transform="rotate(89.933 183.816 7.72327)" fill="#F4FCFF"/>
<circle cx="82.7866" cy="7.84143" r="6.3583" transform="rotate(89.933 82.7866 7.84143)" fill="#F4FCFF"/>
<circle cx="514.477" cy="32.7705" r="6.3583" transform="rotate(89.933 514.477 32.7705)" fill="#F4FCFF"/>
<circle cx="489.044" cy="32.8002" r="6.3583" transform="rotate(89.933 489.044 32.8002)" fill="#F4FCFF"/>
<circle cx="463.611" cy="32.83" r="6.3583" transform="rotate(89.933 463.611 32.83)" fill="#F4FCFF"/>
<circle cx="438.178" cy="32.8596" r="6.3583" transform="rotate(89.933 438.178 32.8596)" fill="#F4FCFF"/>
<circle cx="412.745" cy="32.8894" r="6.3583" transform="rotate(89.933 412.745 32.8894)" fill="#F4FCFF"/>
<circle cx="311.012" cy="33.0083" r="6.3583" transform="rotate(89.933 311.012 33.0083)" fill="#F4FCFF"/>
<circle cx="285.578" cy="33.0381" r="6.3583" transform="rotate(89.933 285.578 33.0381)" fill="#F4FCFF"/>
<circle cx="260.146" cy="33.0678" r="6.3583" transform="rotate(89.933 260.146 33.0678)" fill="#F4FCFF"/>
<circle cx="387.311" cy="32.9191" r="6.3583" transform="rotate(89.933 387.311 32.9191)" fill="#F4FCFF"/>
<circle cx="361.879" cy="32.9489" r="6.3583" transform="rotate(89.933 361.879 32.9489)" fill="#F4FCFF"/>
<circle cx="336.445" cy="32.9786" r="6.3583" transform="rotate(89.933 336.445 32.9786)" fill="#F4FCFF"/>
<circle cx="234.713" cy="33.0975" r="6.3583" transform="rotate(89.933 234.713 33.0975)" fill="#F4FCFF"/>
<circle cx="183.847" cy="33.157" r="6.3583" transform="rotate(89.933 183.847 33.157)" fill="#F4FCFF"/>
<circle cx="209.279" cy="33.1272" r="6.3583" transform="rotate(89.933 209.279 33.1272)" fill="#F4FCFF"/>
<circle cx="82.8172" cy="33.2752" r="6.3583" transform="rotate(89.933 82.8172 33.2752)" fill="#F4FCFF"/>
<circle cx="514.507" cy="58.203" r="6.3583" transform="rotate(89.933 514.507 58.203)" fill="#F4FCFF"/>
<circle cx="489.074" cy="58.2328" r="6.3583" transform="rotate(89.933 489.074 58.2328)" fill="#F4FCFF"/>
<circle cx="311.042" cy="58.4409" r="6.3583" transform="rotate(89.933 311.042 58.4409)" fill="#F4FCFF"/>
<circle cx="285.608" cy="58.4707" r="6.3583" transform="rotate(89.933 285.608 58.4707)" fill="#F4FCFF"/>
<circle cx="260.175" cy="58.5004" r="6.3583" transform="rotate(89.933 260.175 58.5004)" fill="#F4FCFF"/>
<circle cx="463.641" cy="58.2626" r="6.3583" transform="rotate(89.933 463.641 58.2626)" fill="#F4FCFF"/>
<circle cx="438.207" cy="58.2922" r="6.3583" transform="rotate(89.933 438.207 58.2922)" fill="#F4FCFF"/>
<circle cx="412.775" cy="58.322" r="6.3583" transform="rotate(89.933 412.775 58.322)" fill="#F4FCFF"/>
<circle cx="387.341" cy="58.3517" r="6.3583" transform="rotate(89.933 387.341 58.3517)" fill="#F4FCFF"/>
<circle cx="361.908" cy="58.3815" r="6.3583" transform="rotate(89.933 361.908 58.3815)" fill="#F4FCFF"/>
<circle cx="336.474" cy="58.4111" r="6.3583" transform="rotate(89.933 336.474 58.4111)" fill="#F4FCFF"/>
<circle cx="234.743" cy="58.5302" r="6.3583" transform="rotate(89.933 234.743 58.5302)" fill="#F4FCFF"/>
<circle cx="209.309" cy="58.5598" r="6.3583" transform="rotate(89.933 209.309 58.5598)" fill="#F4FCFF"/>
<circle cx="311.071" cy="83.8739" r="6.3583" transform="rotate(89.933 311.071 83.8739)" fill="#F4FCFF"/>
<circle cx="183.876" cy="58.5896" r="6.3583" transform="rotate(89.933 183.876 58.5896)" fill="#F4FCFF"/>
<circle cx="285.639" cy="83.9036" r="6.3583" transform="rotate(89.933 285.639 83.9036)" fill="#F4FCFF"/>
<circle cx="260.205" cy="83.9333" r="6.3583" transform="rotate(89.933 260.205 83.9333)" fill="#F4FCFF"/>
<circle cx="82.8466" cy="58.7076" r="6.3583" transform="rotate(89.933 82.8466 58.7076)" fill="#F4FCFF"/>
<circle cx="514.537" cy="83.636" r="6.3583" transform="rotate(89.933 514.537 83.636)" fill="#F4FCFF"/>
<circle cx="489.103" cy="83.6658" r="6.3583" transform="rotate(89.933 489.103 83.6658)" fill="#F4FCFF"/>
<circle cx="463.671" cy="83.6954" r="6.3583" transform="rotate(89.933 463.671 83.6954)" fill="#F4FCFF"/>
<circle cx="438.237" cy="83.7252" r="6.3583" transform="rotate(89.933 438.237 83.7252)" fill="#F4FCFF"/>
<circle cx="412.804" cy="83.7549" r="6.3583" transform="rotate(89.933 412.804 83.7549)" fill="#F4FCFF"/>
<circle cx="387.37" cy="83.7847" r="6.3583" transform="rotate(89.933 387.37 83.7847)" fill="#F4FCFF"/>
<circle cx="361.938" cy="83.8145" r="6.3583" transform="rotate(89.933 361.938 83.8145)" fill="#F4FCFF"/>
<circle cx="311.101" cy="109.307" r="6.3583" transform="rotate(89.933 311.101 109.307)" fill="#F4FCFF"/>
<circle cx="285.668" cy="109.337" r="6.3583" transform="rotate(89.933 285.668 109.337)" fill="#F4FCFF"/>
<circle cx="260.234" cy="109.367" r="6.3583" transform="rotate(89.933 260.234 109.367)" fill="#F4FCFF"/>
<circle cx="183.905" cy="84.0226" r="6.3583" transform="rotate(89.933 183.905 84.0226)" fill="#F4FCFF"/>
<circle cx="336.505" cy="83.8441" r="6.3583" transform="rotate(89.933 336.505 83.8441)" fill="#F4FCFF"/>
<circle cx="234.772" cy="83.963" r="6.3583" transform="rotate(89.933 234.772 83.963)" fill="#F4FCFF"/>
<circle cx="209.338" cy="83.9928" r="6.3583" transform="rotate(89.933 209.338 83.9928)" fill="#F4FCFF"/>
<circle cx="82.8763" cy="84.1406" r="6.3583" transform="rotate(89.933 82.8763 84.1406)" fill="#F4FCFF"/>
<circle cx="514.567" cy="109.07" r="6.3583" transform="rotate(89.933 514.567 109.07)" fill="#F4FCFF"/>
<circle cx="489.133" cy="109.099" r="6.3583" transform="rotate(89.933 489.133 109.099)" fill="#F4FCFF"/>
<circle cx="463.7" cy="109.129" r="6.3583" transform="rotate(89.933 463.7 109.129)" fill="#F4FCFF"/>
<circle cx="438.267" cy="109.159" r="6.3583" transform="rotate(89.933 438.267 109.159)" fill="#F4FCFF"/>
<circle cx="311.13" cy="134.74" r="6.3583" transform="rotate(89.933 311.13 134.74)" fill="#F4FCFF"/>
<circle cx="285.697" cy="134.77" r="6.3583" transform="rotate(89.933 285.697 134.77)" fill="#F4FCFF"/>
<circle cx="260.265" cy="134.8" r="6.3583" transform="rotate(89.933 260.265 134.8)" fill="#F4FCFF"/>
<circle cx="412.834" cy="109.189" r="6.3583" transform="rotate(89.933 412.834 109.189)" fill="#F4FCFF"/>
<circle cx="387.401" cy="109.218" r="6.3583" transform="rotate(89.933 387.401 109.218)" fill="#F4FCFF"/>
<circle cx="183.935" cy="109.456" r="6.3583" transform="rotate(89.933 183.935 109.456)" fill="#F4FCFF"/>
<circle cx="361.967" cy="109.248" r="6.3583" transform="rotate(89.933 361.967 109.248)" fill="#F4FCFF"/>
<circle cx="336.535" cy="109.278" r="6.3583" transform="rotate(89.933 336.535 109.278)" fill="#F4FCFF"/>
<circle cx="234.802" cy="109.397" r="6.3583" transform="rotate(89.933 234.802 109.397)" fill="#F4FCFF"/>
<circle cx="209.369" cy="109.427" r="6.3583" transform="rotate(89.933 209.369 109.427)" fill="#F4FCFF"/>
<circle cx="82.9057" cy="109.574" r="6.3583" transform="rotate(89.933 82.9057 109.574)" fill="#F4FCFF"/>
<circle cx="514.596" cy="134.503" r="6.3583" transform="rotate(89.933 514.596 134.503)" fill="#F4FCFF"/>
<circle cx="311.161" cy="160.173" r="6.3583" transform="rotate(89.933 311.161 160.173)" fill="#F4FCFF"/>
<circle cx="285.727" cy="160.203" r="6.3583" transform="rotate(89.933 285.727 160.203)" fill="#F4FCFF"/>
<circle cx="260.294" cy="160.233" r="6.3583" transform="rotate(89.933 260.294 160.233)" fill="#F4FCFF"/>
<circle cx="489.162" cy="134.532" r="6.3583" transform="rotate(89.933 489.162 134.532)" fill="#F4FCFF"/>
<circle cx="463.73" cy="134.562" r="6.3583" transform="rotate(89.933 463.73 134.562)" fill="#F4FCFF"/>
<circle cx="438.297" cy="134.592" r="6.3583" transform="rotate(89.933 438.297 134.592)" fill="#F4FCFF"/>
<circle cx="412.863" cy="134.622" r="6.3583" transform="rotate(89.933 412.863 134.622)" fill="#F4FCFF"/>
<circle cx="387.431" cy="134.651" r="6.3583" transform="rotate(89.933 387.431 134.651)" fill="#F4FCFF"/>
<circle cx="361.997" cy="134.681" r="6.3583" transform="rotate(89.933 361.997 134.681)" fill="#F4FCFF"/>
<circle cx="336.564" cy="134.711" r="6.3583" transform="rotate(89.933 336.564 134.711)" fill="#F4FCFF"/>
<circle cx="183.965" cy="134.889" r="6.3583" transform="rotate(89.933 183.965 134.889)" fill="#F4FCFF"/>
<circle cx="234.831" cy="134.83" r="6.3583" transform="rotate(89.933 234.831 134.83)" fill="#F4FCFF"/>
<circle cx="311.19" cy="185.607" r="6.3583" transform="rotate(89.933 311.19 185.607)" fill="#F4FCFF"/>
<circle cx="285.757" cy="185.636" r="6.3583" transform="rotate(89.933 285.757 185.636)" fill="#F4FCFF"/>
<circle cx="260.324" cy="185.666" r="6.3583" transform="rotate(89.933 260.324 185.666)" fill="#F4FCFF"/>
<circle cx="209.398" cy="134.859" r="6.3583" transform="rotate(89.933 209.398 134.859)" fill="#F4FCFF"/>
<circle cx="82.9353" cy="135.007" r="6.3583" transform="rotate(89.933 82.9353 135.007)" fill="#F4FCFF"/>
<circle cx="514.626" cy="159.935" r="6.3583" transform="rotate(89.933 514.626 159.935)" fill="#F4FCFF"/>
<circle cx="489.193" cy="159.965" r="6.3583" transform="rotate(89.933 489.193 159.965)" fill="#F4FCFF"/>
<circle cx="463.759" cy="159.995" r="6.3583" transform="rotate(89.933 463.759 159.995)" fill="#F4FCFF"/>
<circle cx="438.327" cy="160.024" r="6.3583" transform="rotate(89.933 438.327 160.024)" fill="#F4FCFF"/>
<circle cx="412.894" cy="160.054" r="6.3583" transform="rotate(89.933 412.894 160.054)" fill="#F4FCFF"/>
<circle cx="387.46" cy="160.084" r="6.3583" transform="rotate(89.933 387.46 160.084)" fill="#F4FCFF"/>
<circle cx="311.22" cy="211.04" r="6.3583" transform="rotate(89.933 311.22 211.04)" fill="#F4FCFF"/>
<circle cx="183.995" cy="160.322" r="6.3583" transform="rotate(89.933 183.995 160.322)" fill="#F4FCFF"/>
<circle cx="285.787" cy="211.069" r="6.3583" transform="rotate(89.933 285.787 211.069)" fill="#F4FCFF"/>
<circle cx="260.353" cy="211.099" r="6.3583" transform="rotate(89.933 260.353 211.099)" fill="#F4FCFF"/>
<circle cx="362.027" cy="160.114" r="6.3583" transform="rotate(89.933 362.027 160.114)" fill="#F4FCFF"/>
<circle cx="336.593" cy="160.143" r="6.3583" transform="rotate(89.933 336.593 160.143)" fill="#F4FCFF"/>
<circle cx="234.862" cy="160.262" r="6.3583" transform="rotate(89.933 234.862 160.262)" fill="#F4FCFF"/>
<circle cx="209.428" cy="160.292" r="6.3583" transform="rotate(89.933 209.428 160.292)" fill="#F4FCFF"/>
<circle cx="82.9648" cy="160.44" r="6.3583" transform="rotate(89.933 82.9648 160.44)" fill="#F4FCFF"/>
<circle cx="514.655" cy="185.369" r="6.3583" transform="rotate(89.933 514.655 185.369)" fill="#F4FCFF"/>
<circle cx="489.223" cy="185.399" r="6.3583" transform="rotate(89.933 489.223 185.399)" fill="#F4FCFF"/>
<circle cx="463.79" cy="185.428" r="6.3583" transform="rotate(89.933 463.79 185.428)" fill="#F4FCFF"/>
<circle cx="311.249" cy="236.473" r="6.3583" transform="rotate(89.933 311.249 236.473)" fill="#F4FCFF"/>
<circle cx="285.817" cy="236.503" r="6.3583" transform="rotate(89.933 285.817 236.503)" fill="#F4FCFF"/>
<circle cx="260.383" cy="236.533" r="6.3583" transform="rotate(89.933 260.383 236.533)" fill="#F4FCFF"/>
<circle cx="184.025" cy="185.755" r="6.3583" transform="rotate(89.933 184.025 185.755)" fill="#F4FCFF"/>
<circle cx="438.356" cy="185.458" r="6.3583" transform="rotate(89.933 438.356 185.458)" fill="#F4FCFF"/>
<circle cx="412.923" cy="185.488" r="6.3583" transform="rotate(89.933 412.923 185.488)" fill="#F4FCFF"/>
<circle cx="387.49" cy="185.518" r="6.3583" transform="rotate(89.933 387.49 185.518)" fill="#F4FCFF"/>
<circle cx="362.057" cy="185.547" r="6.3583" transform="rotate(89.933 362.057 185.547)" fill="#F4FCFF"/>
<circle cx="336.623" cy="185.577" r="6.3583" transform="rotate(89.933 336.623 185.577)" fill="#F4FCFF"/>
<circle cx="234.891" cy="185.696" r="6.3583" transform="rotate(89.933 234.891 185.696)" fill="#F4FCFF"/>
<circle cx="209.457" cy="185.726" r="6.3583" transform="rotate(89.933 209.457 185.726)" fill="#F4FCFF"/>
<circle cx="82.9955" cy="185.874" r="6.3583" transform="rotate(89.933 82.9955 185.874)" fill="#F4FCFF"/>
<circle cx="311.279" cy="261.906" r="6.3583" transform="rotate(89.933 311.279 261.906)" fill="#F4FCFF"/>
<circle cx="285.846" cy="261.936" r="6.3583" transform="rotate(89.933 285.846 261.936)" fill="#F4FCFF"/>
<circle cx="260.412" cy="261.965" r="6.3583" transform="rotate(89.933 260.412 261.965)" fill="#F4FCFF"/>
<circle cx="514.686" cy="210.802" r="6.3583" transform="rotate(89.933 514.686 210.802)" fill="#F4FCFF"/>
<circle cx="489.252" cy="210.832" r="6.3583" transform="rotate(89.933 489.252 210.832)" fill="#F4FCFF"/>
<circle cx="463.819" cy="210.861" r="6.3583" transform="rotate(89.933 463.819 210.861)" fill="#F4FCFF"/>
<circle cx="438.386" cy="210.891" r="6.3583" transform="rotate(89.933 438.386 210.891)" fill="#F4FCFF"/>
<circle cx="412.953" cy="210.921" r="6.3583" transform="rotate(89.933 412.953 210.921)" fill="#F4FCFF"/>
<circle cx="184.054" cy="211.188" r="6.3583" transform="rotate(89.933 184.054 211.188)" fill="#F4FCFF"/>
<circle cx="387.519" cy="210.95" r="6.3583" transform="rotate(89.933 387.519 210.95)" fill="#F4FCFF"/>
<circle cx="362.086" cy="210.98" r="6.3583" transform="rotate(89.933 362.086 210.98)" fill="#F4FCFF"/>
<circle cx="336.654" cy="211.01" r="6.3583" transform="rotate(89.933 336.654 211.01)" fill="#F4FCFF"/>
<circle cx="311.309" cy="287.339" r="6.3583" transform="rotate(89.933 311.309 287.339)" fill="#F4FCFF"/>
<circle cx="285.876" cy="287.369" r="6.3583" transform="rotate(89.933 285.876 287.369)" fill="#F4FCFF"/>
<circle cx="260.443" cy="287.398" r="6.3583" transform="rotate(89.933 260.443 287.398)" fill="#F4FCFF"/>
<circle cx="234.921" cy="211.129" r="6.3583" transform="rotate(89.933 234.921 211.129)" fill="#F4FCFF"/>
<circle cx="209.487" cy="211.159" r="6.3583" transform="rotate(89.933 209.487 211.159)" fill="#F4FCFF"/>
<circle cx="83.0249" cy="211.306" r="6.3583" transform="rotate(89.933 83.0249 211.306)" fill="#F4FCFF"/>
<circle cx="514.715" cy="236.235" r="6.3583" transform="rotate(89.933 514.715 236.235)" fill="#F4FCFF"/>
<circle cx="489.282" cy="236.265" r="6.3583" transform="rotate(89.933 489.282 236.265)" fill="#F4FCFF"/>
<circle cx="463.849" cy="236.295" r="6.3583" transform="rotate(89.933 463.849 236.295)" fill="#F4FCFF"/>
<circle cx="438.416" cy="236.325" r="6.3583" transform="rotate(89.933 438.416 236.325)" fill="#F4FCFF"/>
<circle cx="184.084" cy="236.622" r="6.3583" transform="rotate(89.933 184.084 236.622)" fill="#F4FCFF"/>
<circle cx="412.982" cy="236.354" r="6.3583" transform="rotate(89.933 412.982 236.354)" fill="#F4FCFF"/>
<circle cx="311.339" cy="312.773" r="6.3583" transform="rotate(89.933 311.339 312.773)" fill="#F4FCFF"/>
<circle cx="285.905" cy="312.803" r="6.3583" transform="rotate(89.933 285.905 312.803)" fill="#F4FCFF"/>
<circle cx="260.473" cy="312.832" r="6.3583" transform="rotate(89.933 260.473 312.832)" fill="#F4FCFF"/>
<circle cx="387.55" cy="236.384" r="6.3583" transform="rotate(89.933 387.55 236.384)" fill="#F4FCFF"/>
<circle cx="362.116" cy="236.414" r="6.3583" transform="rotate(89.933 362.116 236.414)" fill="#F4FCFF"/>
<circle cx="336.683" cy="236.444" r="6.3583" transform="rotate(89.933 336.683 236.444)" fill="#F4FCFF"/>
<circle cx="234.95" cy="236.562" r="6.3583" transform="rotate(89.933 234.95 236.562)" fill="#F4FCFF"/>
<circle cx="209.517" cy="236.592" r="6.3583" transform="rotate(89.933 209.517 236.592)" fill="#F4FCFF"/>
<circle cx="83.0544" cy="236.74" r="6.3583" transform="rotate(89.933 83.0544 236.74)" fill="#F4FCFF"/>
<circle cx="514.745" cy="261.668" r="6.3583" transform="rotate(89.933 514.745 261.668)" fill="#F4FCFF"/>
<circle cx="489.311" cy="261.698" r="6.3583" transform="rotate(89.933 489.311 261.698)" fill="#F4FCFF"/>
<circle cx="311.368" cy="338.205" r="6.3583" transform="rotate(89.933 311.368 338.205)" fill="#F4FCFF"/>
<circle cx="285.936" cy="338.235" r="6.3583" transform="rotate(89.933 285.936 338.235)" fill="#F4FCFF"/>
<circle cx="260.502" cy="338.265" r="6.3583" transform="rotate(89.933 260.502 338.265)" fill="#F4FCFF"/>
<circle cx="311.458" cy="414.475" r="6.3583" transform="rotate(89.933 311.458 414.475)" fill="#F4FCFF"/>
<circle cx="286.024" cy="414.505" r="6.3583" transform="rotate(89.933 286.024 414.505)" fill="#F4FCFF"/>
<circle cx="260.592" cy="414.534" r="6.3583" transform="rotate(89.933 260.592 414.534)" fill="#F4FCFF"/>
<circle cx="463.878" cy="261.728" r="6.3583" transform="rotate(89.933 463.878 261.728)" fill="#F4FCFF"/>
<circle cx="438.446" cy="261.757" r="6.3583" transform="rotate(89.933 438.446 261.757)" fill="#F4FCFF"/>
<circle cx="413.012" cy="261.787" r="6.3583" transform="rotate(89.933 413.012 261.787)" fill="#F4FCFF"/>
<circle cx="387.579" cy="261.817" r="6.3583" transform="rotate(89.933 387.579 261.817)" fill="#F4FCFF"/>
<circle cx="184.113" cy="262.055" r="6.3583" transform="rotate(89.933 184.113 262.055)" fill="#F4FCFF"/>
<circle cx="362.145" cy="261.846" r="6.3583" transform="rotate(89.933 362.145 261.846)" fill="#F4FCFF"/>
<circle cx="311.398" cy="363.639" r="6.3583" transform="rotate(89.933 311.398 363.639)" fill="#F4FCFF"/>
<circle cx="285.965" cy="363.669" r="6.3583" transform="rotate(89.933 285.965 363.669)" fill="#F4FCFF"/>
<circle cx="260.532" cy="363.699" r="6.3583" transform="rotate(89.933 260.532 363.699)" fill="#F4FCFF"/>
<circle cx="336.713" cy="261.876" r="6.3583" transform="rotate(89.933 336.713 261.876)" fill="#F4FCFF"/>
<circle cx="234.98" cy="261.995" r="6.3583" transform="rotate(89.933 234.98 261.995)" fill="#F4FCFF"/>
<circle cx="209.547" cy="262.025" r="6.3583" transform="rotate(89.933 209.547 262.025)" fill="#F4FCFF"/>
<circle cx="311.488" cy="439.907" r="6.3583" transform="rotate(89.933 311.488 439.907)" fill="#F4FCFF"/>
<circle cx="286.054" cy="439.937" r="6.3583" transform="rotate(89.933 286.054 439.937)" fill="#F4FCFF"/>
<circle cx="260.621" cy="439.967" r="6.3583" transform="rotate(89.933 260.621 439.967)" fill="#F4FCFF"/>
<circle cx="83.084" cy="262.173" r="6.3583" transform="rotate(89.933 83.084 262.173)" fill="#F4FCFF"/>
<circle cx="514.774" cy="287.101" r="6.3583" transform="rotate(89.933 514.774 287.101)" fill="#F4FCFF"/>
<circle cx="311.428" cy="389.073" r="6.3583" transform="rotate(89.933 311.428 389.073)" fill="#F4FCFF"/>
<circle cx="285.995" cy="389.102" r="6.3583" transform="rotate(89.933 285.995 389.102)" fill="#F4FCFF"/>
<circle cx="260.561" cy="389.132" r="6.3583" transform="rotate(89.933 260.561 389.132)" fill="#F4FCFF"/>
<circle cx="489.342" cy="287.131" r="6.3583" transform="rotate(89.933 489.342 287.131)" fill="#F4FCFF"/>
<circle cx="184.144" cy="287.488" r="6.3583" transform="rotate(89.933 184.144 287.488)" fill="#F4FCFF"/>
<circle cx="463.908" cy="287.161" r="6.3583" transform="rotate(89.933 463.908 287.161)" fill="#F4FCFF"/>
<circle cx="438.475" cy="287.19" r="6.3583" transform="rotate(89.933 438.475 287.19)" fill="#F4FCFF"/>
<circle cx="413.042" cy="287.22" r="6.3583" transform="rotate(89.933 413.042 287.22)" fill="#F4FCFF"/>
<circle cx="387.609" cy="287.25" r="6.3583" transform="rotate(89.933 387.609 287.25)" fill="#F4FCFF"/>
<circle cx="362.176" cy="287.279" r="6.3583" transform="rotate(89.933 362.176 287.279)" fill="#F4FCFF"/>
<circle cx="311.517" cy="465.342" r="6.3583" transform="rotate(89.933 311.517 465.342)" fill="#F4FCFF"/>
<circle cx="286.084" cy="465.371" r="6.3583" transform="rotate(89.933 286.084 465.371)" fill="#F4FCFF"/>
<circle cx="260.651" cy="465.401" r="6.3583" transform="rotate(89.933 260.651 465.401)" fill="#F4FCFF"/>
<circle cx="336.742" cy="287.309" r="6.3583" transform="rotate(89.933 336.742 287.309)" fill="#F4FCFF"/>
<circle cx="235.01" cy="287.428" r="6.3583" transform="rotate(89.933 235.01 287.428)" fill="#F4FCFF"/>
<circle cx="209.577" cy="287.458" r="6.3583" transform="rotate(89.933 209.577 287.458)" fill="#F4FCFF"/>
<circle cx="83.1135" cy="287.606" r="6.3583" transform="rotate(89.933 83.1135 287.606)" fill="#F4FCFF"/>
<circle cx="184.203" cy="338.354" r="6.3583" transform="rotate(89.933 184.203 338.354)" fill="#F4FCFF"/>
<circle cx="514.804" cy="312.535" r="6.3583" transform="rotate(89.933 514.804 312.535)" fill="#F4FCFF"/>
<circle cx="489.371" cy="312.565" r="6.3583" transform="rotate(89.933 489.371 312.565)" fill="#F4FCFF"/>
<circle cx="514.834" cy="337.968" r="6.3583" transform="rotate(89.933 514.834 337.968)" fill="#F4FCFF"/>
<circle cx="489.401" cy="337.997" r="6.3583" transform="rotate(89.933 489.401 337.997)" fill="#F4FCFF"/>
<circle cx="463.968" cy="338.027" r="6.3583" transform="rotate(89.933 463.968 338.027)" fill="#F4FCFF"/>
<circle cx="438.534" cy="338.057" r="6.3583" transform="rotate(89.933 438.534 338.057)" fill="#F4FCFF"/>
<circle cx="413.102" cy="338.087" r="6.3583" transform="rotate(89.933 413.102 338.087)" fill="#F4FCFF"/>
<circle cx="387.668" cy="338.116" r="6.3583" transform="rotate(89.933 387.668 338.116)" fill="#F4FCFF"/>
<circle cx="362.235" cy="338.146" r="6.3583" transform="rotate(89.933 362.235 338.146)" fill="#F4FCFF"/>
<circle cx="336.802" cy="338.176" r="6.3583" transform="rotate(89.933 336.802 338.176)" fill="#F4FCFF"/>
<circle cx="184.232" cy="363.788" r="6.3583" transform="rotate(89.933 184.232 363.788)" fill="#F4FCFF"/>
<circle cx="235.069" cy="338.295" r="6.3583" transform="rotate(89.933 235.069 338.295)" fill="#F4FCFF"/>
<circle cx="209.636" cy="338.324" r="6.3583" transform="rotate(89.933 209.636 338.324)" fill="#F4FCFF"/>
<circle cx="83.1736" cy="338.472" r="6.3583" transform="rotate(89.933 83.1736 338.472)" fill="#F4FCFF"/>
<circle cx="514.864" cy="363.401" r="6.3583" transform="rotate(89.933 514.864 363.401)" fill="#F4FCFF"/>
<circle cx="489.43" cy="363.431" r="6.3583" transform="rotate(89.933 489.43 363.431)" fill="#F4FCFF"/>
<circle cx="463.998" cy="363.461" r="6.3583" transform="rotate(89.933 463.998 363.461)" fill="#F4FCFF"/>
<circle cx="438.564" cy="363.49" r="6.3583" transform="rotate(89.933 438.564 363.49)" fill="#F4FCFF"/>
<circle cx="413.131" cy="363.52" r="6.3583" transform="rotate(89.933 413.131 363.52)" fill="#F4FCFF"/>
<circle cx="387.698" cy="363.55" r="6.3583" transform="rotate(89.933 387.698 363.55)" fill="#F4FCFF"/>
<circle cx="362.264" cy="363.58" r="6.3583" transform="rotate(89.933 362.264 363.58)" fill="#F4FCFF"/>
<circle cx="184.262" cy="389.221" r="6.3583" transform="rotate(89.933 184.262 389.221)" fill="#F4FCFF"/>
<circle cx="336.832" cy="363.609" r="6.3583" transform="rotate(89.933 336.832 363.609)" fill="#F4FCFF"/>
<circle cx="235.099" cy="363.728" r="6.3583" transform="rotate(89.933 235.099 363.728)" fill="#F4FCFF"/>
<circle cx="209.665" cy="363.758" r="6.3583" transform="rotate(89.933 209.665 363.758)" fill="#F4FCFF"/>
<circle cx="83.2031" cy="363.906" r="6.3583" transform="rotate(89.933 83.2031 363.906)" fill="#F4FCFF"/>
<circle cx="514.894" cy="388.835" r="6.3583" transform="rotate(89.933 514.894 388.835)" fill="#F4FCFF"/>
<circle cx="489.46" cy="388.864" r="6.3583" transform="rotate(89.933 489.46 388.864)" fill="#F4FCFF"/>
<circle cx="464.027" cy="388.894" r="6.3583" transform="rotate(89.933 464.027 388.894)" fill="#F4FCFF"/>
<circle cx="438.594" cy="388.924" r="6.3583" transform="rotate(89.933 438.594 388.924)" fill="#F4FCFF"/>
<circle cx="184.173" cy="312.922" r="6.3583" transform="rotate(89.933 184.173 312.922)" fill="#F4FCFF"/>
<circle cx="413.161" cy="388.953" r="6.3583" transform="rotate(89.933 413.161 388.953)" fill="#F4FCFF"/>
<circle cx="387.728" cy="388.983" r="6.3583" transform="rotate(89.933 387.728 388.983)" fill="#F4FCFF"/>
<circle cx="362.294" cy="389.013" r="6.3583" transform="rotate(89.933 362.294 389.013)" fill="#F4FCFF"/>
<circle cx="336.861" cy="389.043" r="6.3583" transform="rotate(89.933 336.861 389.043)" fill="#F4FCFF"/>
<circle cx="235.128" cy="389.162" r="6.3583" transform="rotate(89.933 235.128 389.162)" fill="#F4FCFF"/>
<circle cx="209.696" cy="389.191" r="6.3583" transform="rotate(89.933 209.696 389.191)" fill="#F4FCFF"/>
<circle cx="83.2326" cy="389.339" r="6.3583" transform="rotate(89.933 83.2326 389.339)" fill="#F4FCFF"/>
<circle cx="463.937" cy="312.594" r="6.3583" transform="rotate(89.933 463.937 312.594)" fill="#F4FCFF"/>
<circle cx="438.505" cy="312.624" r="6.3583" transform="rotate(89.933 438.505 312.624)" fill="#F4FCFF"/>
<circle cx="413.072" cy="312.654" r="6.3583" transform="rotate(89.933 413.072 312.654)" fill="#F4FCFF"/>
<circle cx="184.292" cy="414.624" r="6.3583" transform="rotate(89.933 184.292 414.624)" fill="#F4FCFF"/>
<circle cx="387.638" cy="312.684" r="6.3583" transform="rotate(89.933 387.638 312.684)" fill="#F4FCFF"/>
<circle cx="362.206" cy="312.714" r="6.3583" transform="rotate(89.933 362.206 312.714)" fill="#F4FCFF"/>
<circle cx="336.772" cy="312.743" r="6.3583" transform="rotate(89.933 336.772 312.743)" fill="#F4FCFF"/>
<circle cx="235.04" cy="312.862" r="6.3583" transform="rotate(89.933 235.04 312.862)" fill="#F4FCFF"/>
<circle cx="209.606" cy="312.892" r="6.3583" transform="rotate(89.933 209.606 312.892)" fill="#F4FCFF"/>
<circle cx="83.144" cy="313.04" r="6.3583" transform="rotate(89.933 83.144 313.04)" fill="#F4FCFF"/>
<circle cx="514.923" cy="414.237" r="6.3583" transform="rotate(89.933 514.923 414.237)" fill="#F4FCFF"/>
<circle cx="489.49" cy="414.267" r="6.3583" transform="rotate(89.933 489.49 414.267)" fill="#F4FCFF"/>
<circle cx="464.057" cy="414.297" r="6.3583" transform="rotate(89.933 464.057 414.297)" fill="#F4FCFF"/>
<circle cx="438.624" cy="414.326" r="6.3583" transform="rotate(89.933 438.624 414.326)" fill="#F4FCFF"/>
<circle cx="184.322" cy="440.056" r="6.3583" transform="rotate(89.933 184.322 440.056)" fill="#F4FCFF"/>
<circle cx="413.19" cy="414.356" r="6.3583" transform="rotate(89.933 413.19 414.356)" fill="#F4FCFF"/>
<circle cx="387.757" cy="414.386" r="6.3583" transform="rotate(89.933 387.757 414.386)" fill="#F4FCFF"/>
<circle cx="362.324" cy="414.415" r="6.3583" transform="rotate(89.933 362.324 414.415)" fill="#F4FCFF"/>
<circle cx="336.891" cy="414.445" r="6.3583" transform="rotate(89.933 336.891 414.445)" fill="#F4FCFF"/>
<circle cx="235.159" cy="414.564" r="6.3583" transform="rotate(89.933 235.159 414.564)" fill="#F4FCFF"/>
<circle cx="209.725" cy="414.594" r="6.3583" transform="rotate(89.933 209.725 414.594)" fill="#F4FCFF"/>
<circle cx="83.2622" cy="414.742" r="6.3583" transform="rotate(89.933 83.2622 414.742)" fill="#F4FCFF"/>
<circle cx="514.953" cy="439.67" r="6.3583" transform="rotate(89.933 514.953 439.67)" fill="#F4FCFF"/>
<circle cx="159.106" cy="338.383" r="6.3583" transform="rotate(89.933 159.106 338.383)" fill="#F4FCFF"/>
<circle cx="133.672" cy="338.413" r="6.3583" transform="rotate(89.933 133.672 338.413)" fill="#F4FCFF"/>
<circle cx="108.24" cy="338.443" r="6.3583" transform="rotate(89.933 108.24 338.443)" fill="#F4FCFF"/>
<circle cx="159.136" cy="363.817" r="6.3583" transform="rotate(89.933 159.136 363.817)" fill="#F4FCFF"/>
<circle cx="133.703" cy="363.847" r="6.3583" transform="rotate(89.933 133.703 363.847)" fill="#F4FCFF"/>
<circle cx="108.269" cy="363.877" r="6.3583" transform="rotate(89.933 108.269 363.877)" fill="#F4FCFF"/>
<circle cx="159.165" cy="389.25" r="6.3583" transform="rotate(89.933 159.165 389.25)" fill="#F4FCFF"/>
<circle cx="133.733" cy="389.28" r="6.3583" transform="rotate(89.933 133.733 389.28)" fill="#F4FCFF"/>
<circle cx="108.299" cy="389.31" r="6.3583" transform="rotate(89.933 108.299 389.31)" fill="#F4FCFF"/>
<circle cx="489.52" cy="439.699" r="6.3583" transform="rotate(89.933 489.52 439.699)" fill="#F4FCFF"/>
<circle cx="464.086" cy="439.729" r="6.3583" transform="rotate(89.933 464.086 439.729)" fill="#F4FCFF"/>
<circle cx="184.352" cy="465.49" r="6.3583" transform="rotate(89.933 184.352 465.49)" fill="#F4FCFF"/>
<circle cx="158.719" cy="7.75269" r="6.3583" transform="rotate(89.933 158.719 7.75269)" fill="#F4FCFF"/>
<circle cx="133.286" cy="7.78235" r="6.3583" transform="rotate(89.933 133.286 7.78235)" fill="#F4FCFF"/>
<circle cx="107.853" cy="7.81214" r="6.3583" transform="rotate(89.933 107.853 7.81214)" fill="#F4FCFF"/>
<circle cx="158.749" cy="33.1863" r="6.3583" transform="rotate(89.933 158.749 33.1863)" fill="#F4FCFF"/>
<circle cx="133.316" cy="33.2161" r="6.3583" transform="rotate(89.933 133.316 33.2161)" fill="#F4FCFF"/>
<circle cx="107.883" cy="33.2459" r="6.3583" transform="rotate(89.933 107.883 33.2459)" fill="#F4FCFF"/>
<circle cx="158.779" cy="58.6189" r="6.3583" transform="rotate(89.933 158.779 58.6189)" fill="#F4FCFF"/>
<circle cx="133.346" cy="58.6487" r="6.3583" transform="rotate(89.933 133.346 58.6487)" fill="#F4FCFF"/>
<circle cx="107.913" cy="58.6783" r="6.3583" transform="rotate(89.933 107.913 58.6783)" fill="#F4FCFF"/>
<circle cx="158.809" cy="84.0519" r="6.3583" transform="rotate(89.933 158.809 84.0519)" fill="#F4FCFF"/>
<circle cx="133.375" cy="84.0815" r="6.3583" transform="rotate(89.933 133.375 84.0815)" fill="#F4FCFF"/>
<circle cx="107.942" cy="84.1113" r="6.3583" transform="rotate(89.933 107.942 84.1113)" fill="#F4FCFF"/>
<circle cx="158.838" cy="109.485" r="6.3583" transform="rotate(89.933 158.838 109.485)" fill="#F4FCFF"/>
<circle cx="133.406" cy="109.515" r="6.3583" transform="rotate(89.933 133.406 109.515)" fill="#F4FCFF"/>
<circle cx="107.972" cy="109.545" r="6.3583" transform="rotate(89.933 107.972 109.545)" fill="#F4FCFF"/>
<circle cx="158.868" cy="134.918" r="6.3583" transform="rotate(89.933 158.868 134.918)" fill="#F4FCFF"/>
<circle cx="133.435" cy="134.948" r="6.3583" transform="rotate(89.933 133.435 134.948)" fill="#F4FCFF"/>
<circle cx="108.001" cy="134.978" r="6.3583" transform="rotate(89.933 108.001 134.978)" fill="#F4FCFF"/>
<circle cx="158.897" cy="160.351" r="6.3583" transform="rotate(89.933 158.897 160.351)" fill="#F4FCFF"/>
<circle cx="133.465" cy="160.381" r="6.3583" transform="rotate(89.933 133.465 160.381)" fill="#F4FCFF"/>
<circle cx="108.032" cy="160.411" r="6.3583" transform="rotate(89.933 108.032 160.411)" fill="#F4FCFF"/>
<circle cx="158.928" cy="185.785" r="6.3583" transform="rotate(89.933 158.928 185.785)" fill="#F4FCFF"/>
<circle cx="133.494" cy="185.814" r="6.3583" transform="rotate(89.933 133.494 185.814)" fill="#F4FCFF"/>
<circle cx="108.061" cy="185.844" r="6.3583" transform="rotate(89.933 108.061 185.844)" fill="#F4FCFF"/>
<circle cx="158.957" cy="211.218" r="6.3583" transform="rotate(89.933 158.957 211.218)" fill="#F4FCFF"/>
<circle cx="133.524" cy="211.247" r="6.3583" transform="rotate(89.933 133.524 211.247)" fill="#F4FCFF"/>
<circle cx="108.091" cy="211.277" r="6.3583" transform="rotate(89.933 108.091 211.277)" fill="#F4FCFF"/>
<circle cx="158.987" cy="236.651" r="6.3583" transform="rotate(89.933 158.987 236.651)" fill="#F4FCFF"/>
<circle cx="133.554" cy="236.681" r="6.3583" transform="rotate(89.933 133.554 236.681)" fill="#F4FCFF"/>
<circle cx="108.121" cy="236.711" r="6.3583" transform="rotate(89.933 108.121 236.711)" fill="#F4FCFF"/>
<circle cx="159.017" cy="262.084" r="6.3583" transform="rotate(89.933 159.017 262.084)" fill="#F4FCFF"/>
<circle cx="133.584" cy="262.114" r="6.3583" transform="rotate(89.933 133.584 262.114)" fill="#F4FCFF"/>
<circle cx="108.15" cy="262.143" r="6.3583" transform="rotate(89.933 108.15 262.143)" fill="#F4FCFF"/>
<circle cx="159.046" cy="287.517" r="6.3583" transform="rotate(89.933 159.046 287.517)" fill="#F4FCFF"/>
<circle cx="133.613" cy="287.547" r="6.3583" transform="rotate(89.933 133.613 287.547)" fill="#F4FCFF"/>
<circle cx="108.181" cy="287.576" r="6.3583" transform="rotate(89.933 108.181 287.576)" fill="#F4FCFF"/>
<circle cx="159.077" cy="312.951" r="6.3583" transform="rotate(89.933 159.077 312.951)" fill="#F4FCFF"/>
<circle cx="133.643" cy="312.981" r="6.3583" transform="rotate(89.933 133.643 312.981)" fill="#F4FCFF"/>
<circle cx="108.21" cy="313.01" r="6.3583" transform="rotate(89.933 108.21 313.01)" fill="#F4FCFF"/>
<circle cx="159.195" cy="414.653" r="6.3583" transform="rotate(89.933 159.195 414.653)" fill="#F4FCFF"/>
<circle cx="133.762" cy="414.683" r="6.3583" transform="rotate(89.933 133.762 414.683)" fill="#F4FCFF"/>
<circle cx="108.328" cy="414.712" r="6.3583" transform="rotate(89.933 108.328 414.712)" fill="#F4FCFF"/>
<circle cx="159.224" cy="440.085" r="6.3583" transform="rotate(89.933 159.224 440.085)" fill="#F4FCFF"/>
<circle cx="133.792" cy="440.115" r="6.3583" transform="rotate(89.933 133.792 440.115)" fill="#F4FCFF"/>
<circle cx="108.359" cy="440.145" r="6.3583" transform="rotate(89.933 108.359 440.145)" fill="#F4FCFF"/>
<circle cx="159.255" cy="465.52" r="6.3583" transform="rotate(89.933 159.255 465.52)" fill="#F4FCFF"/>
<circle cx="133.821" cy="465.549" r="6.3583" transform="rotate(89.933 133.821 465.549)" fill="#F4FCFF"/>
<circle cx="108.388" cy="465.579" r="6.3583" transform="rotate(89.933 108.388 465.579)" fill="#F4FCFF"/>
<circle cx="438.653" cy="439.759" r="6.3583" transform="rotate(89.933 438.653 439.759)" fill="#F4FCFF"/>
<circle cx="413.221" cy="439.789" r="6.3583" transform="rotate(89.933 413.221 439.789)" fill="#F4FCFF"/>
<circle cx="387.787" cy="439.818" r="6.3583" transform="rotate(89.933 387.787 439.818)" fill="#F4FCFF"/>
<circle cx="362.354" cy="439.848" r="6.3583" transform="rotate(89.933 362.354 439.848)" fill="#F4FCFF"/>
<circle cx="336.92" cy="439.878" r="6.3583" transform="rotate(89.933 336.92 439.878)" fill="#F4FCFF"/>
<circle cx="235.188" cy="439.997" r="6.3583" transform="rotate(89.933 235.188 439.997)" fill="#F4FCFF"/>
<circle cx="209.755" cy="440.026" r="6.3583" transform="rotate(89.933 209.755 440.026)" fill="#F4FCFF"/>
<circle cx="83.2927" cy="440.174" r="6.3583" transform="rotate(89.933 83.2927 440.174)" fill="#F4FCFF"/>
<circle cx="514.983" cy="465.104" r="6.3583" transform="rotate(89.933 514.983 465.104)" fill="#F4FCFF"/>
<circle cx="489.549" cy="465.133" r="6.3583" transform="rotate(89.933 489.549 465.133)" fill="#F4FCFF"/>
<circle cx="464.117" cy="465.163" r="6.3583" transform="rotate(89.933 464.117 465.163)" fill="#F4FCFF"/>
<circle cx="438.683" cy="465.193" r="6.3583" transform="rotate(89.933 438.683 465.193)" fill="#F4FCFF"/>
<circle cx="413.25" cy="465.223" r="6.3583" transform="rotate(89.933 413.25 465.223)" fill="#F4FCFF"/>
<circle cx="387.816" cy="465.252" r="6.3583" transform="rotate(89.933 387.816 465.252)" fill="#F4FCFF"/>
<circle cx="362.384" cy="465.282" r="6.3583" transform="rotate(89.933 362.384 465.282)" fill="#F4FCFF"/>
<circle cx="336.951" cy="465.312" r="6.3583" transform="rotate(89.933 336.951 465.312)" fill="#F4FCFF"/>
<circle cx="58.0759" cy="338.502" r="6.3583" transform="rotate(89.933 58.0759 338.502)" fill="#F4FCFF"/>
<circle cx="32.6432" cy="338.531" r="6.3583" transform="rotate(89.933 32.6432 338.531)" fill="#F4FCFF"/>
<circle cx="7.21042" cy="338.561" r="6.3583" transform="rotate(89.933 7.21042 338.561)" fill="#F4FCFF"/>
<circle cx="58.1064" cy="363.935" r="6.3583" transform="rotate(89.933 58.1064 363.935)" fill="#F4FCFF"/>
<circle cx="32.6727" cy="363.965" r="6.3583" transform="rotate(89.933 32.6727 363.965)" fill="#F4FCFF"/>
<circle cx="7.23996" cy="363.995" r="6.3583" transform="rotate(89.933 7.23996 363.995)" fill="#F4FCFF"/>
<circle cx="58.136" cy="389.369" r="6.3583" transform="rotate(89.933 58.136 389.369)" fill="#F4FCFF"/>
<circle cx="32.7022" cy="389.398" r="6.3583" transform="rotate(89.933 32.7022 389.398)" fill="#F4FCFF"/>
<circle cx="7.2695" cy="389.428" r="6.3583" transform="rotate(89.933 7.2695 389.428)" fill="#F4FCFF"/>
<circle cx="235.218" cy="465.431" r="6.3583" transform="rotate(89.933 235.218 465.431)" fill="#F4FCFF"/>
<circle cx="209.784" cy="465.46" r="6.3583" transform="rotate(89.933 209.784 465.46)" fill="#F4FCFF"/>
<circle cx="83.3222" cy="465.608" r="6.3583" transform="rotate(89.933 83.3222 465.608)" fill="#F4FCFF"/>
<circle cx="57.6899" cy="7.87073" r="6.3583" transform="rotate(89.933 57.6899 7.87073)" fill="#F4FCFF"/>
<circle cx="32.2562" cy="7.90052" r="6.3583" transform="rotate(89.933 32.2562 7.90052)" fill="#F4FCFF"/>
<circle cx="6.82346" cy="7.93018" r="6.3583" transform="rotate(89.933 6.82346 7.93018)" fill="#F4FCFF"/>
<circle cx="57.7195" cy="33.3044" r="6.3583" transform="rotate(89.933 57.7195 33.3044)" fill="#F4FCFF"/>
<circle cx="32.2867" cy="33.3341" r="6.3583" transform="rotate(89.933 32.2867 33.3341)" fill="#F4FCFF"/>
<circle cx="6.853" cy="33.3639" r="6.3583" transform="rotate(89.933 6.853 33.3639)" fill="#F4FCFF"/>
<circle cx="57.749" cy="58.7371" r="6.3583" transform="rotate(89.933 57.749 58.7371)" fill="#F4FCFF"/>
<circle cx="32.3163" cy="58.7667" r="6.3583" transform="rotate(89.933 32.3163 58.7667)" fill="#F4FCFF"/>
<circle cx="6.88254" cy="58.7965" r="6.3583" transform="rotate(89.933 6.88254 58.7965)" fill="#F4FCFF"/>
<circle cx="57.7785" cy="84.1699" r="6.3583" transform="rotate(89.933 57.7785 84.1699)" fill="#F4FCFF"/>
<circle cx="32.3458" cy="84.1997" r="6.3583" transform="rotate(89.933 32.3458 84.1997)" fill="#F4FCFF"/>
<circle cx="6.91306" cy="84.2295" r="6.3583" transform="rotate(89.933 6.91306 84.2295)" fill="#F4FCFF"/>
<circle cx="57.8091" cy="109.604" r="6.3583" transform="rotate(89.933 57.8091 109.604)" fill="#F4FCFF"/>
<circle cx="32.3753" cy="109.633" r="6.3583" transform="rotate(89.933 32.3753 109.633)" fill="#F4FCFF"/>
<circle cx="6.9426" cy="109.663" r="6.3583" transform="rotate(89.933 6.9426 109.663)" fill="#F4FCFF"/>
<circle cx="57.8386" cy="135.037" r="6.3583" transform="rotate(89.933 57.8386 135.037)" fill="#F4FCFF"/>
<circle cx="32.4049" cy="135.066" r="6.3583" transform="rotate(89.933 32.4049 135.066)" fill="#F4FCFF"/>
<circle cx="6.97214" cy="135.096" r="6.3583" transform="rotate(89.933 6.97214 135.096)" fill="#F4FCFF"/>
<circle cx="57.8681" cy="160.469" r="6.3583" transform="rotate(89.933 57.8681 160.469)" fill="#F4FCFF"/>
<circle cx="32.4354" cy="160.499" r="6.3583" transform="rotate(89.933 32.4354 160.499)" fill="#F4FCFF"/>
<circle cx="7.00168" cy="160.529" r="6.3583" transform="rotate(89.933 7.00168 160.529)" fill="#F4FCFF"/>
<circle cx="57.8977" cy="185.903" r="6.3583" transform="rotate(89.933 57.8977 185.903)" fill="#F4FCFF"/>
<circle cx="32.4649" cy="185.933" r="6.3583" transform="rotate(89.933 32.4649 185.933)" fill="#F4FCFF"/>
<circle cx="7.03122" cy="185.962" r="6.3583" transform="rotate(89.933 7.03122 185.962)" fill="#F4FCFF"/>
<circle cx="57.9272" cy="211.336" r="6.3583" transform="rotate(89.933 57.9272 211.336)" fill="#F4FCFF"/>
<circle cx="32.4945" cy="211.365" r="6.3583" transform="rotate(89.933 32.4945 211.365)" fill="#F4FCFF"/>
<circle cx="7.06174" cy="211.395" r="6.3583" transform="rotate(89.933 7.06174 211.395)" fill="#F4FCFF"/>
<circle cx="57.9577" cy="236.769" r="6.3583" transform="rotate(89.933 57.9577 236.769)" fill="#F4FCFF"/>
<circle cx="32.524" cy="236.799" r="6.3583" transform="rotate(89.933 32.524 236.799)" fill="#F4FCFF"/>
<circle cx="7.09128" cy="236.829" r="6.3583" transform="rotate(89.933 7.09128 236.829)" fill="#F4FCFF"/>
<circle cx="57.9873" cy="262.202" r="6.3583" transform="rotate(89.933 57.9873 262.202)" fill="#F4FCFF"/>
<circle cx="32.5536" cy="262.232" r="6.3583" transform="rotate(89.933 32.5536 262.232)" fill="#F4FCFF"/>
<circle cx="7.12082" cy="262.261" r="6.3583" transform="rotate(89.933 7.12082 262.261)" fill="#F4FCFF"/>
<circle cx="58.0168" cy="287.635" r="6.3583" transform="rotate(89.933 58.0168 287.635)" fill="#F4FCFF"/>
<circle cx="32.5841" cy="287.665" r="6.3583" transform="rotate(89.933 32.5841 287.665)" fill="#F4FCFF"/>
<circle cx="7.15036" cy="287.694" r="6.3583" transform="rotate(89.933 7.15036 287.694)" fill="#F4FCFF"/>
<circle cx="58.0464" cy="313.069" r="6.3583" transform="rotate(89.933 58.0464 313.069)" fill="#F4FCFF"/>
<circle cx="32.6136" cy="313.099" r="6.3583" transform="rotate(89.933 32.6136 313.099)" fill="#F4FCFF"/>
<circle cx="7.1799" cy="313.129" r="6.3583" transform="rotate(89.933 7.1799 313.129)" fill="#F4FCFF"/>
<circle cx="58.1655" cy="414.771" r="6.3583" transform="rotate(89.933 58.1655 414.771)" fill="#F4FCFF"/>
<circle cx="32.7318" cy="414.801" r="6.3583" transform="rotate(89.933 32.7318 414.801)" fill="#F4FCFF"/>
<circle cx="7.29904" cy="414.83" r="6.3583" transform="rotate(89.933 7.29904 414.83)" fill="#F4FCFF"/>
<circle cx="58.195" cy="440.204" r="6.3583" transform="rotate(89.933 58.195 440.204)" fill="#F4FCFF"/>
<circle cx="32.7623" cy="440.233" r="6.3583" transform="rotate(89.933 32.7623 440.233)" fill="#F4FCFF"/>
<circle cx="7.32858" cy="440.263" r="6.3583" transform="rotate(89.933 7.32858 440.263)" fill="#F4FCFF"/>
<circle cx="58.2246" cy="465.638" r="6.3583" transform="rotate(89.933 58.2246 465.638)" fill="#F4FCFF"/>
<circle cx="32.7918" cy="465.667" r="6.3583" transform="rotate(89.933 32.7918 465.667)" fill="#F4FCFF"/>
<circle cx="7.3591" cy="465.697" r="6.3583" transform="rotate(89.933 7.3591 465.697)" fill="#F4FCFF"/>
</svg>
