<svg width="537" height="593" viewBox="0 0 537 593" fill="none" xmlns="http://www.w3.org/2000/svg">
<circle cx="7.24615" cy="7.24615" r="7.24615" fill="#FFEBEA"/>
<circle cx="7.24615" cy="36.2308" r="7.24615" fill="#FFEBEA"/>
<circle cx="7.24615" cy="65.2154" r="7.24615" fill="#FFEBEA"/>
<circle cx="7.24615" cy="94.1998" r="7.24615" fill="#FFEBEA"/>
<circle cx="7.24615" cy="123.185" r="7.24615" fill="#FFEBEA"/>
<circle cx="7.24615" cy="152.169" r="7.24615" fill="#FFEBEA"/>
<circle cx="7.24615" cy="181.154" r="7.24615" fill="#FFEBEA"/>
<circle cx="7.24615" cy="210.138" r="7.24615" fill="#FFEBEA"/>
<circle cx="7.24615" cy="239.123" r="7.24615" fill="#FFEBEA"/>
<circle cx="7.24615" cy="268.108" r="7.24615" fill="#FFEBEA"/>
<circle cx="7.24615" cy="297.092" r="7.24615" fill="#FFEBEA"/>
<circle cx="7.24615" cy="326.077" r="7.24615" fill="#FFEBEA"/>
<circle cx="7.24615" cy="355.062" r="7.24615" fill="#FFEBEA"/>
<circle cx="7.24615" cy="384.046" r="7.24615" fill="#FFEBEA"/>
<circle cx="7.24615" cy="499.183" r="7.24615" fill="#FFEBEA"/>
<circle cx="36.2309" cy="7.24615" r="7.24615" fill="#FFEBEA"/>
<circle cx="36.2309" cy="36.2308" r="7.24615" fill="#FFEBEA"/>
<circle cx="36.2309" cy="65.2154" r="7.24615" fill="#FFEBEA"/>
<circle cx="36.2309" cy="94.1998" r="7.24615" fill="#FFEBEA"/>
<circle cx="36.2309" cy="123.185" r="7.24615" fill="#FFEBEA"/>
<circle cx="36.2309" cy="239.123" r="7.24615" fill="#FFEBEA"/>
<circle cx="36.2309" cy="268.108" r="7.24615" fill="#FFEBEA"/>
<circle cx="36.2309" cy="297.092" r="7.24615" fill="#FFEBEA"/>
<circle cx="36.2309" cy="152.169" r="7.24615" fill="#FFEBEA"/>
<circle cx="36.2309" cy="181.154" r="7.24615" fill="#FFEBEA"/>
<circle cx="36.2309" cy="210.138" r="7.24615" fill="#FFEBEA"/>
<circle cx="36.2309" cy="326.077" r="7.24615" fill="#FFEBEA"/>
<circle cx="36.2309" cy="384.046" r="7.24615" fill="#FFEBEA"/>
<circle cx="36.2309" cy="355.062" r="7.24615" fill="#FFEBEA"/>
<circle cx="36.2309" cy="499.183" r="7.24615" fill="#FFEBEA"/>
<circle cx="65.215" cy="7.24615" r="7.24615" fill="#FFEBEA"/>
<circle cx="65.215" cy="36.2308" r="7.24615" fill="#FFEBEA"/>
<circle cx="65.215" cy="239.123" r="7.24615" fill="#FFEBEA"/>
<circle cx="65.215" cy="268.108" r="7.24615" fill="#FFEBEA"/>
<circle cx="65.215" cy="297.092" r="7.24615" fill="#FFEBEA"/>
<circle cx="65.215" cy="65.2154" r="7.24615" fill="#FFEBEA"/>
<circle cx="65.215" cy="94.1998" r="7.24615" fill="#FFEBEA"/>
<circle cx="65.215" cy="123.185" r="7.24615" fill="#FFEBEA"/>
<circle cx="65.215" cy="152.169" r="7.24615" fill="#FFEBEA"/>
<circle cx="65.215" cy="181.154" r="7.24615" fill="#FFEBEA"/>
<circle cx="65.215" cy="210.138" r="7.24615" fill="#FFEBEA"/>
<circle cx="65.215" cy="326.077" r="7.24615" fill="#FFEBEA"/>
<circle cx="65.215" cy="355.062" r="7.24615" fill="#FFEBEA"/>
<circle cx="94.1998" cy="239.123" r="7.24615" fill="#FFEBEA"/>
<circle cx="65.215" cy="384.046" r="7.24615" fill="#FFEBEA"/>
<circle cx="94.1998" cy="268.108" r="7.24615" fill="#FFEBEA"/>
<circle cx="94.1998" cy="297.092" r="7.24615" fill="#FFEBEA"/>
<circle cx="65.215" cy="499.183" r="7.24615" fill="#FFEBEA"/>
<circle cx="94.1998" cy="7.24615" r="7.24615" fill="#FFEBEA"/>
<circle cx="94.1998" cy="36.2308" r="7.24615" fill="#FFEBEA"/>
<circle cx="94.1998" cy="65.2154" r="7.24615" fill="#FFEBEA"/>
<circle cx="94.1998" cy="94.1998" r="7.24615" fill="#FFEBEA"/>
<circle cx="94.1998" cy="123.185" r="7.24615" fill="#FFEBEA"/>
<circle cx="94.1998" cy="152.169" r="7.24615" fill="#FFEBEA"/>
<circle cx="94.1998" cy="181.154" r="7.24615" fill="#FFEBEA"/>
<circle cx="123.184" cy="239.123" r="7.24615" fill="#FFEBEA"/>
<circle cx="123.184" cy="268.108" r="7.24615" fill="#FFEBEA"/>
<circle cx="123.184" cy="297.092" r="7.24615" fill="#FFEBEA"/>
<circle cx="94.1998" cy="384.046" r="7.24615" fill="#FFEBEA"/>
<circle cx="94.1998" cy="210.138" r="7.24615" fill="#FFEBEA"/>
<circle cx="94.1998" cy="326.077" r="7.24615" fill="#FFEBEA"/>
<circle cx="94.1998" cy="355.062" r="7.24615" fill="#FFEBEA"/>
<circle cx="94.1998" cy="499.183" r="7.24615" fill="#FFEBEA"/>
<circle cx="123.184" cy="7.24615" r="7.24615" fill="#FFEBEA"/>
<circle cx="123.184" cy="36.2308" r="7.24615" fill="#FFEBEA"/>
<circle cx="123.184" cy="65.2154" r="7.24615" fill="#FFEBEA"/>
<circle cx="123.184" cy="94.1998" r="7.24615" fill="#FFEBEA"/>
<circle cx="152.169" cy="239.123" r="7.24615" fill="#FFEBEA"/>
<circle cx="152.169" cy="268.108" r="7.24615" fill="#FFEBEA"/>
<circle cx="152.169" cy="297.092" r="7.24615" fill="#FFEBEA"/>
<circle cx="123.184" cy="123.185" r="7.24615" fill="#FFEBEA"/>
<circle cx="123.184" cy="152.169" r="7.24615" fill="#FFEBEA"/>
<circle cx="123.184" cy="384.046" r="7.24615" fill="#FFEBEA"/>
<circle cx="123.184" cy="181.154" r="7.24615" fill="#FFEBEA"/>
<circle cx="123.184" cy="210.138" r="7.24615" fill="#FFEBEA"/>
<circle cx="123.184" cy="326.077" r="7.24615" fill="#FFEBEA"/>
<circle cx="123.184" cy="355.062" r="7.24615" fill="#FFEBEA"/>
<circle cx="123.184" cy="499.183" r="7.24615" fill="#FFEBEA"/>
<circle cx="152.169" cy="7.24615" r="7.24615" fill="#FFEBEA"/>
<circle cx="181.153" cy="239.123" r="7.24615" fill="#FFEBEA"/>
<circle cx="181.153" cy="268.108" r="7.24615" fill="#FFEBEA"/>
<circle cx="181.153" cy="297.092" r="7.24615" fill="#FFEBEA"/>
<circle cx="152.169" cy="36.2308" r="7.24615" fill="#FFEBEA"/>
<circle cx="152.169" cy="65.2154" r="7.24615" fill="#FFEBEA"/>
<circle cx="152.169" cy="94.1998" r="7.24615" fill="#FFEBEA"/>
<circle cx="152.169" cy="123.185" r="7.24615" fill="#FFEBEA"/>
<circle cx="152.169" cy="152.169" r="7.24615" fill="#FFEBEA"/>
<circle cx="152.169" cy="181.154" r="7.24615" fill="#FFEBEA"/>
<circle cx="152.169" cy="210.138" r="7.24615" fill="#FFEBEA"/>
<circle cx="152.169" cy="384.046" r="7.24615" fill="#FFEBEA"/>
<circle cx="152.169" cy="326.077" r="7.24615" fill="#FFEBEA"/>
<circle cx="210.138" cy="239.123" r="7.24615" fill="#FFEBEA"/>
<circle cx="210.138" cy="268.108" r="7.24615" fill="#FFEBEA"/>
<circle cx="210.138" cy="297.092" r="7.24615" fill="#FFEBEA"/>
<circle cx="152.169" cy="355.062" r="7.24615" fill="#FFEBEA"/>
<circle cx="152.169" cy="499.183" r="7.24615" fill="#FFEBEA"/>
<circle cx="181.153" cy="7.24615" r="7.24615" fill="#FFEBEA"/>
<circle cx="181.153" cy="36.2308" r="7.24615" fill="#FFEBEA"/>
<circle cx="181.153" cy="65.2154" r="7.24615" fill="#FFEBEA"/>
<circle cx="181.153" cy="94.1998" r="7.24615" fill="#FFEBEA"/>
<circle cx="181.153" cy="123.185" r="7.24615" fill="#FFEBEA"/>
<circle cx="181.153" cy="152.169" r="7.24615" fill="#FFEBEA"/>
<circle cx="239.123" cy="239.123" r="7.24615" fill="#FFEBEA"/>
<circle cx="181.153" cy="384.046" r="7.24615" fill="#FFEBEA"/>
<circle cx="239.123" cy="268.108" r="7.24615" fill="#FFEBEA"/>
<circle cx="239.123" cy="297.092" r="7.24615" fill="#FFEBEA"/>
<circle cx="181.153" cy="181.154" r="7.24615" fill="#FFEBEA"/>
<circle cx="181.153" cy="210.138" r="7.24615" fill="#FFEBEA"/>
<circle cx="181.153" cy="326.077" r="7.24615" fill="#FFEBEA"/>
<circle cx="181.153" cy="355.062" r="7.24615" fill="#FFEBEA"/>
<circle cx="181.153" cy="499.183" r="7.24615" fill="#FFEBEA"/>
<circle cx="210.138" cy="7.24615" r="7.24615" fill="#FFEBEA"/>
<circle cx="210.138" cy="36.2308" r="7.24615" fill="#FFEBEA"/>
<circle cx="210.138" cy="65.2154" r="7.24615" fill="#FFEBEA"/>
<circle cx="268.108" cy="239.123" r="7.24615" fill="#FFEBEA"/>
<circle cx="268.108" cy="268.108" r="7.24615" fill="#FFEBEA"/>
<circle cx="268.108" cy="297.092" r="7.24615" fill="#FFEBEA"/>
<circle cx="210.138" cy="384.046" r="7.24615" fill="#FFEBEA"/>
<circle cx="210.138" cy="94.1998" r="7.24615" fill="#FFEBEA"/>
<circle cx="210.138" cy="123.185" r="7.24615" fill="#FFEBEA"/>
<circle cx="210.138" cy="152.169" r="7.24615" fill="#FFEBEA"/>
<circle cx="210.138" cy="181.154" r="7.24615" fill="#FFEBEA"/>
<circle cx="210.138" cy="210.138" r="7.24615" fill="#FFEBEA"/>
<circle cx="210.138" cy="326.077" r="7.24615" fill="#FFEBEA"/>
<circle cx="210.138" cy="355.062" r="7.24615" fill="#FFEBEA"/>
<circle cx="210.138" cy="499.183" r="7.24615" fill="#FFEBEA"/>
<circle cx="297.092" cy="239.123" r="7.24615" fill="#FFEBEA"/>
<circle cx="297.092" cy="268.108" r="7.24615" fill="#FFEBEA"/>
<circle cx="297.092" cy="297.092" r="7.24615" fill="#FFEBEA"/>
<circle cx="239.123" cy="7.24615" r="7.24615" fill="#FFEBEA"/>
<circle cx="239.123" cy="36.2308" r="7.24615" fill="#FFEBEA"/>
<circle cx="239.123" cy="65.2154" r="7.24615" fill="#FFEBEA"/>
<circle cx="239.123" cy="94.1998" r="7.24615" fill="#FFEBEA"/>
<circle cx="239.123" cy="123.185" r="7.24615" fill="#FFEBEA"/>
<circle cx="239.123" cy="384.046" r="7.24615" fill="#FFEBEA"/>
<circle cx="239.123" cy="152.169" r="7.24615" fill="#FFEBEA"/>
<circle cx="239.123" cy="181.154" r="7.24615" fill="#FFEBEA"/>
<circle cx="239.123" cy="210.138" r="7.24615" fill="#FFEBEA"/>
<circle cx="326.076" cy="239.123" r="7.24615" fill="#FFEBEA"/>
<circle cx="326.076" cy="268.108" r="7.24615" fill="#FFEBEA"/>
<circle cx="326.076" cy="297.092" r="7.24615" fill="#FFEBEA"/>
<circle cx="239.123" cy="326.077" r="7.24615" fill="#FFEBEA"/>
<circle cx="239.123" cy="355.062" r="7.24615" fill="#FFEBEA"/>
<circle cx="239.123" cy="499.183" r="7.24615" fill="#FFEBEA"/>
<circle cx="268.108" cy="7.24615" r="7.24615" fill="#FFEBEA"/>
<circle cx="268.108" cy="36.2308" r="7.24615" fill="#FFEBEA"/>
<circle cx="268.108" cy="65.2154" r="7.24615" fill="#FFEBEA"/>
<circle cx="268.108" cy="94.1998" r="7.24615" fill="#FFEBEA"/>
<circle cx="268.108" cy="384.046" r="7.24615" fill="#FFEBEA"/>
<circle cx="268.108" cy="123.185" r="7.24615" fill="#FFEBEA"/>
<circle cx="355.061" cy="239.123" r="7.24615" fill="#FFEBEA"/>
<circle cx="355.061" cy="268.108" r="7.24615" fill="#FFEBEA"/>
<circle cx="355.061" cy="297.092" r="7.24615" fill="#FFEBEA"/>
<circle cx="268.108" cy="152.169" r="7.24615" fill="#FFEBEA"/>
<circle cx="268.108" cy="181.154" r="7.24615" fill="#FFEBEA"/>
<circle cx="268.108" cy="210.138" r="7.24615" fill="#FFEBEA"/>
<circle cx="268.108" cy="326.077" r="7.24615" fill="#FFEBEA"/>
<circle cx="268.108" cy="355.062" r="7.24615" fill="#FFEBEA"/>
<circle cx="268.108" cy="499.183" r="7.24615" fill="#FFEBEA"/>
<circle cx="297.092" cy="7.24615" r="7.24615" fill="#FFEBEA"/>
<circle cx="297.092" cy="36.2308" r="7.24615" fill="#FFEBEA"/>
<circle cx="384.046" cy="239.123" r="7.24615" fill="#FFEBEA"/>
<circle cx="384.046" cy="268.108" r="7.24615" fill="#FFEBEA"/>
<circle cx="384.046" cy="297.092" r="7.24615" fill="#FFEBEA"/>
<circle cx="470.965" cy="239.123" r="7.24615" fill="#FFEBEA"/>
<circle cx="470.965" cy="268.108" r="7.24615" fill="#FFEBEA"/>
<circle cx="470.965" cy="297.092" r="7.24615" fill="#FFEBEA"/>
<circle cx="297.092" cy="65.2154" r="7.24615" fill="#FFEBEA"/>
<circle cx="297.092" cy="94.1998" r="7.24615" fill="#FFEBEA"/>
<circle cx="297.092" cy="123.185" r="7.24615" fill="#FFEBEA"/>
<circle cx="297.092" cy="152.169" r="7.24615" fill="#FFEBEA"/>
<circle cx="297.092" cy="384.046" r="7.24615" fill="#FFEBEA"/>
<circle cx="297.092" cy="181.154" r="7.24615" fill="#FFEBEA"/>
<circle cx="413.031" cy="239.123" r="7.24615" fill="#FFEBEA"/>
<circle cx="413.031" cy="268.108" r="7.24615" fill="#FFEBEA"/>
<circle cx="413.031" cy="297.092" r="7.24615" fill="#FFEBEA"/>
<circle cx="297.092" cy="210.138" r="7.24615" fill="#FFEBEA"/>
<circle cx="297.092" cy="326.077" r="7.24615" fill="#FFEBEA"/>
<circle cx="297.092" cy="355.062" r="7.24615" fill="#FFEBEA"/>
<circle cx="499.949" cy="239.123" r="7.24615" fill="#FFEBEA"/>
<circle cx="499.949" cy="268.108" r="7.24615" fill="#FFEBEA"/>
<circle cx="499.949" cy="297.092" r="7.24615" fill="#FFEBEA"/>
<circle cx="297.092" cy="499.183" r="7.24615" fill="#FFEBEA"/>
<circle cx="326.076" cy="7.24615" r="7.24615" fill="#FFEBEA"/>
<circle cx="442.015" cy="239.123" r="7.24615" fill="#FFEBEA"/>
<circle cx="442.015" cy="268.108" r="7.24615" fill="#FFEBEA"/>
<circle cx="442.015" cy="297.092" r="7.24615" fill="#FFEBEA"/>
<circle cx="326.076" cy="36.2308" r="7.24615" fill="#FFEBEA"/>
<circle cx="326.076" cy="384.046" r="7.24615" fill="#FFEBEA"/>
<circle cx="326.076" cy="65.2154" r="7.24615" fill="#FFEBEA"/>
<circle cx="326.076" cy="94.1998" r="7.24615" fill="#FFEBEA"/>
<circle cx="326.076" cy="123.185" r="7.24615" fill="#FFEBEA"/>
<circle cx="326.076" cy="152.169" r="7.24615" fill="#FFEBEA"/>
<circle cx="326.076" cy="181.154" r="7.24615" fill="#FFEBEA"/>
<circle cx="528.934" cy="239.123" r="7.24615" fill="#FFEBEA"/>
<circle cx="528.934" cy="268.108" r="7.24615" fill="#FFEBEA"/>
<circle cx="528.934" cy="297.092" r="7.24615" fill="#FFEBEA"/>
<circle cx="326.076" cy="210.138" r="7.24615" fill="#FFEBEA"/>
<circle cx="326.076" cy="326.077" r="7.24615" fill="#FFEBEA"/>
<circle cx="326.076" cy="355.062" r="7.24615" fill="#FFEBEA"/>
<circle cx="326.076" cy="499.183" r="7.24615" fill="#FFEBEA"/>
<circle cx="384.046" cy="384.046" r="7.24615" fill="#FFEBEA"/>
<circle cx="355.061" cy="7.24615" r="7.24615" fill="#FFEBEA"/>
<circle cx="355.061" cy="36.2308" r="7.24615" fill="#FFEBEA"/>
<circle cx="384.046" cy="7.24615" r="7.24615" fill="#FFEBEA"/>
<circle cx="384.046" cy="36.2308" r="7.24615" fill="#FFEBEA"/>
<circle cx="384.046" cy="65.2154" r="7.24615" fill="#FFEBEA"/>
<circle cx="384.046" cy="94.1998" r="7.24615" fill="#FFEBEA"/>
<circle cx="384.046" cy="123.185" r="7.24615" fill="#FFEBEA"/>
<circle cx="384.046" cy="152.169" r="7.24615" fill="#FFEBEA"/>
<circle cx="384.046" cy="181.154" r="7.24615" fill="#FFEBEA"/>
<circle cx="384.046" cy="210.138" r="7.24615" fill="#FFEBEA"/>
<circle cx="413.031" cy="384.046" r="7.24615" fill="#FFEBEA"/>
<circle cx="384.046" cy="326.077" r="7.24615" fill="#FFEBEA"/>
<circle cx="384.046" cy="355.062" r="7.24615" fill="#FFEBEA"/>
<circle cx="384.046" cy="499.183" r="7.24615" fill="#FFEBEA"/>
<circle cx="413.031" cy="7.24615" r="7.24615" fill="#FFEBEA"/>
<circle cx="413.031" cy="36.2308" r="7.24615" fill="#FFEBEA"/>
<circle cx="413.031" cy="65.2154" r="7.24615" fill="#FFEBEA"/>
<circle cx="413.031" cy="94.1998" r="7.24615" fill="#FFEBEA"/>
<circle cx="413.031" cy="123.185" r="7.24615" fill="#FFEBEA"/>
<circle cx="413.031" cy="152.169" r="7.24615" fill="#FFEBEA"/>
<circle cx="413.031" cy="181.154" r="7.24615" fill="#FFEBEA"/>
<circle cx="442.015" cy="384.046" r="7.24615" fill="#FFEBEA"/>
<circle cx="413.031" cy="210.138" r="7.24615" fill="#FFEBEA"/>
<circle cx="413.031" cy="326.077" r="7.24615" fill="#FFEBEA"/>
<circle cx="413.031" cy="355.062" r="7.24615" fill="#FFEBEA"/>
<circle cx="413.031" cy="499.183" r="7.24615" fill="#FFEBEA"/>
<circle cx="442.015" cy="7.24615" r="7.24615" fill="#FFEBEA"/>
<circle cx="442.015" cy="36.2308" r="7.24615" fill="#FFEBEA"/>
<circle cx="442.015" cy="65.2154" r="7.24615" fill="#FFEBEA"/>
<circle cx="442.015" cy="94.1998" r="7.24615" fill="#FFEBEA"/>
<circle cx="355.061" cy="384.046" r="7.24615" fill="#FFEBEA"/>
<circle cx="442.015" cy="123.185" r="7.24615" fill="#FFEBEA"/>
<circle cx="442.015" cy="152.169" r="7.24615" fill="#FFEBEA"/>
<circle cx="442.015" cy="181.154" r="7.24615" fill="#FFEBEA"/>
<circle cx="442.015" cy="210.138" r="7.24615" fill="#FFEBEA"/>
<circle cx="442.015" cy="326.077" r="7.24615" fill="#FFEBEA"/>
<circle cx="442.015" cy="355.062" r="7.24615" fill="#FFEBEA"/>
<circle cx="442.015" cy="499.183" r="7.24615" fill="#FFEBEA"/>
<circle cx="355.061" cy="65.2154" r="7.24615" fill="#FFEBEA"/>
<circle cx="355.061" cy="94.1998" r="7.24615" fill="#FFEBEA"/>
<circle cx="355.061" cy="123.185" r="7.24615" fill="#FFEBEA"/>
<circle cx="470.965" cy="384.046" r="7.24615" fill="#FFEBEA"/>
<circle cx="355.061" cy="152.169" r="7.24615" fill="#FFEBEA"/>
<circle cx="355.061" cy="181.154" r="7.24615" fill="#FFEBEA"/>
<circle cx="355.061" cy="210.138" r="7.24615" fill="#FFEBEA"/>
<circle cx="355.061" cy="326.077" r="7.24615" fill="#FFEBEA"/>
<circle cx="355.061" cy="355.062" r="7.24615" fill="#FFEBEA"/>
<circle cx="355.061" cy="499.183" r="7.24615" fill="#FFEBEA"/>
<circle cx="470.965" cy="7.24615" r="7.24615" fill="#FFEBEA"/>
<circle cx="470.965" cy="36.2308" r="7.24615" fill="#FFEBEA"/>
<circle cx="470.965" cy="65.2154" r="7.24615" fill="#FFEBEA"/>
<circle cx="470.965" cy="94.1998" r="7.24615" fill="#FFEBEA"/>
<circle cx="499.949" cy="384.046" r="7.24615" fill="#FFEBEA"/>
<circle cx="470.965" cy="123.185" r="7.24615" fill="#FFEBEA"/>
<circle cx="470.965" cy="152.169" r="7.24615" fill="#FFEBEA"/>
<circle cx="470.965" cy="181.154" r="7.24615" fill="#FFEBEA"/>
<circle cx="470.965" cy="210.138" r="7.24615" fill="#FFEBEA"/>
<circle cx="470.965" cy="326.077" r="7.24615" fill="#FFEBEA"/>
<circle cx="470.965" cy="355.062" r="7.24615" fill="#FFEBEA"/>
<circle cx="470.965" cy="499.183" r="7.24615" fill="#FFEBEA"/>
<circle cx="499.949" cy="7.24615" r="7.24615" fill="#FFEBEA"/>
<circle cx="384.046" cy="412.648" r="7.24615" fill="#FFEBEA"/>
<circle cx="384.046" cy="441.632" r="7.24615" fill="#FFEBEA"/>
<circle cx="384.046" cy="470.617" r="7.24615" fill="#FFEBEA"/>
<circle cx="413.031" cy="412.648" r="7.24615" fill="#FFEBEA"/>
<circle cx="413.031" cy="441.632" r="7.24615" fill="#FFEBEA"/>
<circle cx="413.031" cy="470.617" r="7.24615" fill="#FFEBEA"/>
<circle cx="442.015" cy="412.648" r="7.24615" fill="#FFEBEA"/>
<circle cx="442.015" cy="441.632" r="7.24615" fill="#FFEBEA"/>
<circle cx="442.015" cy="470.617" r="7.24615" fill="#FFEBEA"/>
<circle cx="499.949" cy="36.2308" r="7.24615" fill="#FFEBEA"/>
<circle cx="499.949" cy="65.2154" r="7.24615" fill="#FFEBEA"/>
<circle cx="528.934" cy="384.046" r="7.24615" fill="#FFEBEA"/>
<circle cx="7.24615" cy="412.648" r="7.24615" fill="#FFEBEA"/>
<circle cx="7.24615" cy="441.632" r="7.24615" fill="#FFEBEA"/>
<circle cx="7.24615" cy="470.617" r="7.24615" fill="#FFEBEA"/>
<circle cx="36.2309" cy="412.648" r="7.24615" fill="#FFEBEA"/>
<circle cx="36.2309" cy="441.632" r="7.24615" fill="#FFEBEA"/>
<circle cx="36.2309" cy="470.617" r="7.24615" fill="#FFEBEA"/>
<circle cx="65.215" cy="412.648" r="7.24615" fill="#FFEBEA"/>
<circle cx="65.215" cy="441.632" r="7.24615" fill="#FFEBEA"/>
<circle cx="65.215" cy="470.617" r="7.24615" fill="#FFEBEA"/>
<circle cx="94.1998" cy="412.648" r="7.24615" fill="#FFEBEA"/>
<circle cx="94.1998" cy="441.632" r="7.24615" fill="#FFEBEA"/>
<circle cx="94.1998" cy="470.617" r="7.24615" fill="#FFEBEA"/>
<circle cx="123.184" cy="412.648" r="7.24615" fill="#FFEBEA"/>
<circle cx="123.184" cy="441.632" r="7.24615" fill="#FFEBEA"/>
<circle cx="123.184" cy="470.617" r="7.24615" fill="#FFEBEA"/>
<circle cx="152.169" cy="412.648" r="7.24615" fill="#FFEBEA"/>
<circle cx="152.169" cy="441.632" r="7.24615" fill="#FFEBEA"/>
<circle cx="152.169" cy="470.617" r="7.24615" fill="#FFEBEA"/>
<circle cx="181.153" cy="412.648" r="7.24615" fill="#FFEBEA"/>
<circle cx="181.153" cy="441.632" r="7.24615" fill="#FFEBEA"/>
<circle cx="181.153" cy="470.617" r="7.24615" fill="#FFEBEA"/>
<circle cx="210.138" cy="412.648" r="7.24615" fill="#FFEBEA"/>
<circle cx="210.138" cy="441.632" r="7.24615" fill="#FFEBEA"/>
<circle cx="210.138" cy="470.617" r="7.24615" fill="#FFEBEA"/>
<circle cx="239.123" cy="412.648" r="7.24615" fill="#FFEBEA"/>
<circle cx="239.123" cy="441.632" r="7.24615" fill="#FFEBEA"/>
<circle cx="239.123" cy="470.617" r="7.24615" fill="#FFEBEA"/>
<circle cx="268.108" cy="412.648" r="7.24615" fill="#FFEBEA"/>
<circle cx="268.108" cy="441.632" r="7.24615" fill="#FFEBEA"/>
<circle cx="268.108" cy="470.617" r="7.24615" fill="#FFEBEA"/>
<circle cx="297.092" cy="412.648" r="7.24615" fill="#FFEBEA"/>
<circle cx="297.092" cy="441.632" r="7.24615" fill="#FFEBEA"/>
<circle cx="297.092" cy="470.617" r="7.24615" fill="#FFEBEA"/>
<circle cx="326.076" cy="412.648" r="7.24615" fill="#FFEBEA"/>
<circle cx="326.076" cy="441.632" r="7.24615" fill="#FFEBEA"/>
<circle cx="326.076" cy="470.617" r="7.24615" fill="#FFEBEA"/>
<circle cx="355.061" cy="412.648" r="7.24615" fill="#FFEBEA"/>
<circle cx="355.061" cy="441.632" r="7.24615" fill="#FFEBEA"/>
<circle cx="355.061" cy="470.617" r="7.24615" fill="#FFEBEA"/>
<circle cx="470.965" cy="412.648" r="7.24615" fill="#FFEBEA"/>
<circle cx="470.965" cy="441.632" r="7.24615" fill="#FFEBEA"/>
<circle cx="470.965" cy="470.617" r="7.24615" fill="#FFEBEA"/>
<circle cx="499.949" cy="412.648" r="7.24615" fill="#FFEBEA"/>
<circle cx="499.949" cy="441.632" r="7.24615" fill="#FFEBEA"/>
<circle cx="499.949" cy="470.617" r="7.24615" fill="#FFEBEA"/>
<circle cx="528.934" cy="412.648" r="7.24615" fill="#FFEBEA"/>
<circle cx="528.934" cy="441.632" r="7.24615" fill="#FFEBEA"/>
<circle cx="528.934" cy="470.617" r="7.24615" fill="#FFEBEA"/>
<circle cx="499.949" cy="94.1998" r="7.24615" fill="#FFEBEA"/>
<circle cx="499.949" cy="123.185" r="7.24615" fill="#FFEBEA"/>
<circle cx="499.949" cy="152.169" r="7.24615" fill="#FFEBEA"/>
<circle cx="499.949" cy="181.154" r="7.24615" fill="#FFEBEA"/>
<circle cx="499.949" cy="210.138" r="7.24615" fill="#FFEBEA"/>
<circle cx="499.949" cy="326.077" r="7.24615" fill="#FFEBEA"/>
<circle cx="499.949" cy="355.062" r="7.24615" fill="#FFEBEA"/>
<circle cx="499.949" cy="499.183" r="7.24615" fill="#FFEBEA"/>
<circle cx="528.934" cy="7.24615" r="7.24615" fill="#FFEBEA"/>
<circle cx="528.934" cy="36.2308" r="7.24615" fill="#FFEBEA"/>
<circle cx="528.934" cy="65.2154" r="7.24615" fill="#FFEBEA"/>
<circle cx="528.934" cy="94.1998" r="7.24615" fill="#FFEBEA"/>
<circle cx="528.934" cy="123.185" r="7.24615" fill="#FFEBEA"/>
<circle cx="528.934" cy="152.169" r="7.24615" fill="#FFEBEA"/>
<circle cx="528.934" cy="181.154" r="7.24615" fill="#FFEBEA"/>
<circle cx="528.934" cy="210.138" r="7.24615" fill="#FFEBEA"/>
<circle cx="384.046" cy="527.785" r="7.24615" fill="#FFEBEA"/>
<circle cx="384.046" cy="556.769" r="7.24615" fill="#FFEBEA"/>
<circle cx="384.046" cy="585.754" r="7.24615" fill="#FFEBEA"/>
<circle cx="413.031" cy="527.785" r="7.24615" fill="#FFEBEA"/>
<circle cx="413.031" cy="556.769" r="7.24615" fill="#FFEBEA"/>
<circle cx="413.031" cy="585.754" r="7.24615" fill="#FFEBEA"/>
<circle cx="442.015" cy="527.785" r="7.24615" fill="#FFEBEA"/>
<circle cx="442.015" cy="556.769" r="7.24615" fill="#FFEBEA"/>
<circle cx="442.015" cy="585.754" r="7.24615" fill="#FFEBEA"/>
<circle cx="528.934" cy="326.077" r="7.24615" fill="#FFEBEA"/>
<circle cx="528.934" cy="355.062" r="7.24615" fill="#FFEBEA"/>
<circle cx="528.934" cy="499.183" r="7.24615" fill="#FFEBEA"/>
<circle cx="7.24615" cy="527.785" r="7.24615" fill="#FFEBEA"/>
<circle cx="7.24615" cy="556.769" r="7.24615" fill="#FFEBEA"/>
<circle cx="7.24615" cy="585.754" r="7.24615" fill="#FFEBEA"/>
<circle cx="36.2309" cy="527.785" r="7.24615" fill="#FFEBEA"/>
<circle cx="36.2309" cy="556.769" r="7.24615" fill="#FFEBEA"/>
<circle cx="36.2309" cy="585.754" r="7.24615" fill="#FFEBEA"/>
<circle cx="65.215" cy="527.785" r="7.24615" fill="#FFEBEA"/>
<circle cx="65.215" cy="556.769" r="7.24615" fill="#FFEBEA"/>
<circle cx="65.215" cy="585.754" r="7.24615" fill="#FFEBEA"/>
<circle cx="94.1998" cy="527.785" r="7.24615" fill="#FFEBEA"/>
<circle cx="94.1998" cy="556.769" r="7.24615" fill="#FFEBEA"/>
<circle cx="94.1998" cy="585.754" r="7.24615" fill="#FFEBEA"/>
<circle cx="123.184" cy="527.785" r="7.24615" fill="#FFEBEA"/>
<circle cx="123.184" cy="556.769" r="7.24615" fill="#FFEBEA"/>
<circle cx="123.184" cy="585.754" r="7.24615" fill="#FFEBEA"/>
<circle cx="152.169" cy="527.785" r="7.24615" fill="#FFEBEA"/>
<circle cx="152.169" cy="556.769" r="7.24615" fill="#FFEBEA"/>
<circle cx="152.169" cy="585.754" r="7.24615" fill="#FFEBEA"/>
<circle cx="181.153" cy="527.785" r="7.24615" fill="#FFEBEA"/>
<circle cx="181.153" cy="556.769" r="7.24615" fill="#FFEBEA"/>
<circle cx="181.153" cy="585.754" r="7.24615" fill="#FFEBEA"/>
<circle cx="210.138" cy="527.785" r="7.24615" fill="#FFEBEA"/>
<circle cx="210.138" cy="556.769" r="7.24615" fill="#FFEBEA"/>
<circle cx="210.138" cy="585.754" r="7.24615" fill="#FFEBEA"/>
<circle cx="239.123" cy="527.785" r="7.24615" fill="#FFEBEA"/>
<circle cx="239.123" cy="556.769" r="7.24615" fill="#FFEBEA"/>
<circle cx="239.123" cy="585.754" r="7.24615" fill="#FFEBEA"/>
<circle cx="268.108" cy="527.785" r="7.24615" fill="#FFEBEA"/>
<circle cx="268.108" cy="556.769" r="7.24615" fill="#FFEBEA"/>
<circle cx="268.108" cy="585.754" r="7.24615" fill="#FFEBEA"/>
<circle cx="297.092" cy="527.785" r="7.24615" fill="#FFEBEA"/>
<circle cx="297.092" cy="556.769" r="7.24615" fill="#FFEBEA"/>
<circle cx="297.092" cy="585.754" r="7.24615" fill="#FFEBEA"/>
<circle cx="326.076" cy="527.785" r="7.24615" fill="#FFEBEA"/>
<circle cx="326.076" cy="556.769" r="7.24615" fill="#FFEBEA"/>
<circle cx="326.076" cy="585.754" r="7.24615" fill="#FFEBEA"/>
<circle cx="355.061" cy="527.785" r="7.24615" fill="#FFEBEA"/>
<circle cx="355.061" cy="556.769" r="7.24615" fill="#FFEBEA"/>
<circle cx="355.061" cy="585.754" r="7.24615" fill="#FFEBEA"/>
<circle cx="470.965" cy="527.785" r="7.24615" fill="#FFEBEA"/>
<circle cx="470.965" cy="556.769" r="7.24615" fill="#FFEBEA"/>
<circle cx="470.965" cy="585.754" r="7.24615" fill="#FFEBEA"/>
<circle cx="499.949" cy="527.785" r="7.24615" fill="#FFEBEA"/>
<circle cx="499.949" cy="556.769" r="7.24615" fill="#FFEBEA"/>
<circle cx="499.949" cy="585.754" r="7.24615" fill="#FFEBEA"/>
<circle cx="528.934" cy="527.785" r="7.24615" fill="#FFEBEA"/>
<circle cx="528.934" cy="556.769" r="7.24615" fill="#FFEBEA"/>
<circle cx="528.934" cy="585.754" r="7.24615" fill="#FFEBEA"/>
</svg>
