<svg width="40" height="40" viewBox="0 0 40 40" fill="none" xmlns="http://www.w3.org/2000/svg">
<path fill-rule="evenodd" clip-rule="evenodd" d="M37.9631 34.1581C38.7937 34.1581 39.2623 33.2039 38.7543 32.5466L26.6242 16.8488C26.2238 16.3307 25.4419 16.3307 25.0416 16.8488L17.3124 26.8513C16.9182 27.3614 16.1515 27.3707 15.745 26.8704L11.609 21.78C11.2088 21.2874 10.457 21.2874 10.0568 21.78L1.32441 32.5275C0.793429 33.181 1.25849 34.1581 2.10052 34.1581H21.6662C21.6662 34.1581 21.6662 34.1581 21.6662 34.1581C21.6662 34.1581 21.6662 34.1581 21.6662 34.1581H37.9631Z" fill="#00B2EB"/>
<ellipse cx="12.4997" cy="9.16667" rx="4.16667" ry="4.16667" fill="#00B2EB"/>
</svg>
